<?xml version="1.0" encoding="UTF-8" standalone="yes"?><svg xmlns="http://www.w3.org/2000/svg" xmlns:xlink="http://www.w3.org/1999/xlink" height="197px" style="width:118px;height:197px;" version="1.1" viewBox="0 0 118 197" width="118px"><defs><filter height="300%" id="f1" width="300%" x="-1" y="-1"><feGaussianBlur result="blurOut" stdDeviation="2.0"/><feColorMatrix in="blurOut" result="blurOut2" type="matrix" values="0 0 0 0 0 0 0 0 0 0 0 0 0 0 0 0 0 0 .4 0"/><feOffset dx="4.0" dy="4.0" in="blurOut2" result="blurOut3"/><feBlend in="SourceGraphic" in2="blurOut3" mode="normal"/></filter></defs><g><rect fill="#FEFECE" filter="url(#f1)" height="71.9595" style="stroke: #A80036; stroke-width: 1.5;" width="103" x="6" y="8"/><ellipse cx="21" cy="24.9934" fill="#ADD1B2" rx="11" ry="11" style="stroke: #A80036; stroke-width: 1.0;"/><path d="M23.3438,20.6653 L23.5156,20.7434 C23.7344,20.4309 23.9375,20.3372 24.2344,20.3372 C24.5313,20.3372 24.8125,20.4778 24.9688,20.7434 C25.0625,20.8997 25.0781,21.0247 25.0781,21.4622 L25.0781,22.884 C25.0781,23.3059 25.0469,23.4934 24.9375,23.6497 C24.7656,23.8684 24.5,24.009 24.2344,24.009 C24.0156,24.009 23.7813,23.8997 23.6406,23.759 C23.5,23.634 23.4688,23.509 23.4063,23.1028 C23.3125,22.6965 23.1406,22.4778 22.6563,22.1965 C22.1875,21.9465 21.5781,21.7903 21,21.7903 C19.2656,21.7903 18.0156,23.1028 18.0156,24.884 L18.0156,25.9778 C18.0156,27.6809 19.3125,28.7747 21.3594,28.7747 C22.125,28.7747 22.8125,28.6497 23.2344,28.384 C23.4219,28.2903 23.4219,28.2903 23.875,27.8059 C24.0625,27.6184 24.2656,27.5403 24.4844,27.5403 C24.9531,27.5403 25.3438,27.9309 25.3438,28.384 C25.3438,28.7747 25.0156,29.2278 24.4375,29.634 C23.6875,30.1809 22.5313,30.4778 21.3125,30.4778 C18.4219,30.4778 16.3125,28.5872 16.3125,26.009 L16.3125,24.884 C16.3125,22.1653 18.3125,20.0872 20.9375,20.0872 C21.8125,20.0872 22.4063,20.2278 23.3438,20.6653 Z "/><text fill="#000000" font-family="sans-serif" font-size="12" font-style="italic" lengthAdjust="spacingAndGlyphs" textLength="64" x="33" y="22.6967">«singleton»</text><text fill="#000000" font-family="sans-serif" font-size="12" lengthAdjust="spacingAndGlyphs" textLength="8" x="61" y="34.6901">A</text><rect fill="#FFFFFF" height="13.9934" style="stroke: #000000; stroke-width: 1.0; stroke-dasharray: 2.0,2.0;" width="9" x="103" y="5"/><text fill="#000000" font-family="sans-serif" font-size="12" font-style="italic" lengthAdjust="spacingAndGlyphs" textLength="7" x="104" y="15.6967">T</text><line style="stroke: #A80036; stroke-width: 1.5;" x1="7" x2="108" y1="41.9868" y2="41.9868"/><rect fill="none" height="6" style="stroke: #C82930; stroke-width: 1.0;" width="6" x="14" y="49.9868"/><text fill="#000000" font-family="sans-serif" font-size="11" font-style="italic" lengthAdjust="spacingAndGlyphs" textLength="20" x="26" y="54.8761">int x</text><line style="stroke: #A80036; stroke-width: 1.5;" x1="7" x2="108" y1="60.9731" y2="60.9731"/><polygon fill="#FFFF44" points="17,66.9731,21,70.9731,17,74.9731,13,70.9731" style="stroke: #B38D22; stroke-width: 1.0;"/><text fill="#000000" font-family="sans-serif" font-size="11" lengthAdjust="spacingAndGlyphs" text-decoration="underline" textLength="58" x="26" y="73.8624">void meta()</text><line style="stroke: #000000; stroke-width: 1.0;" x1="26" x2="84" y1="75.8624" y2="75.8624"/><rect fill="#FEFECE" filter="url(#f1)" height="48" style="stroke: #A80036; stroke-width: 1.5;" width="40" x="37.5" y="140"/><ellipse cx="52.5" cy="156" fill="#ADD1B2" rx="11" ry="11" style="stroke: #A80036; stroke-width: 1.0;"/><path d="M54.8438,151.6719 L55.0156,151.75 C55.2344,151.4375 55.4375,151.3438 55.7344,151.3438 C56.0313,151.3438 56.3125,151.4844 56.4688,151.75 C56.5625,151.9063 56.5781,152.0313 56.5781,152.4688 L56.5781,153.8906 C56.5781,154.3125 56.5469,154.5 56.4375,154.6563 C56.2656,154.875 56,155.0156 55.7344,155.0156 C55.5156,155.0156 55.2813,154.9063 55.1406,154.7656 C55,154.6406 54.9688,154.5156 54.9063,154.1094 C54.8125,153.7031 54.6406,153.4844 54.1563,153.2031 C53.6875,152.9531 53.0781,152.7969 52.5,152.7969 C50.7656,152.7969 49.5156,154.1094 49.5156,155.8906 L49.5156,156.9844 C49.5156,158.6875 50.8125,159.7813 52.8594,159.7813 C53.625,159.7813 54.3125,159.6563 54.7344,159.3906 C54.9219,159.2969 54.9219,159.2969 55.375,158.8125 C55.5625,158.625 55.7656,158.5469 55.9844,158.5469 C56.4531,158.5469 56.8438,158.9375 56.8438,159.3906 C56.8438,159.7813 56.5156,160.2344 55.9375,160.6406 C55.1875,161.1875 54.0313,161.4844 52.8125,161.4844 C49.9219,161.4844 47.8125,159.5938 47.8125,157.0156 L47.8125,155.8906 C47.8125,153.1719 49.8125,151.0938 52.4375,151.0938 C53.3125,151.0938 53.9063,151.2344 54.8438,151.6719 Z "/><text fill="#000000" font-family="sans-serif" font-size="12" lengthAdjust="spacingAndGlyphs" textLength="8" x="66.5" y="159.7">B</text><line style="stroke: #A80036; stroke-width: 1.5;" x1="38.5" x2="76.5" y1="172" y2="172"/><line style="stroke: #A80036; stroke-width: 1.5;" x1="38.5" x2="76.5" y1="180" y2="180"/><path d="M57.5,100.5217 C57.5,114.3802 57.5,128.4954 57.5,139.7948 " fill="none" style="stroke: #A80036; stroke-width: 1.0;"/><polygon fill="none" points="50.5001,100.0844,57.5,80.084,64.5001,100.0844,50.5001,100.0844" style="stroke: #A80036; stroke-width: 1.0;"/></g></svg>